<svg xmlns="http://www.w3.org/2000/svg" width="120.606" height="43.21" viewBox="0 0 120.606 43.21">
    <path d="M26.328 0L6.41 16.222l.516.634L26.844.633zM20.75 35.1c-1.169 2.833-3.6 4.27-7.241 4.27-5.018 0-8.427-2.8-8.9-7.317 0-.007-.061-.675-.078-1.086h21.754v-.077a15.607 15.607 0 0 0-1.123-5.618c-1.816-4.442-6.3-7.095-11.984-7.095-7.757 0-13.175 5.2-13.175 12.637 0 7.415 5.257 12.4 13.081 12.4 6.259 0 10.443-2.634 12.789-8.052l.045-.1h-5.15zM4.764 28.432l.021-.091H4.78l.016-.057a8.009 8.009 0 0 1 3.274-4.867 7.43 7.43 0 0 1 .342-.224l.082-.048.066-.038c.191-.111.384-.213.576-.3l.036-.017c.225-.1.459-.2.694-.284h.013c.241-.085.488-.161.738-.224l.043-.013c.209-.051.427-.1.667-.139l.07-.013c.032-.006.063-.012.1-.017.152-.024.308-.04.466-.056a10.316 10.316 0 0 1 1.192-.074c4.4 0 7.483 2.355 8.259 6.3l.02.07h-.01l.016.087a10.8 10.8 0 0 1 .161 1.383H4.537a11.011 11.011 0 0 1 .227-1.379m77.945.135l11.379 13.98h-5.609l-.039-.049-9.261-11.283-3.128 2.769v8.562h-4.727V8.919h4.726v20.353l11.635-10.471h5.99l-.263.233zm-29.257-2.049c-.522-5.391-4.681-8.362-11.726-8.362-6.156 0-10.29 2.947-10.29 7.332 0 3.826 2.553 5.967 8.031 6.74l4.465.7c3.17.522 4.887 1.212 4.887 3.361 0 2.1-2.223 3.359-5.946 3.359-4.127 0-6.764-1.625-7.532-4.594h-4.619c.7 5.1 5.189 8.137 12.151 8.137 6.653 0 10.954-2.878 10.954-7.333 0-3.963-2.565-6.044-8.577-6.954l-4.947-.7c-2.711-.428-3.92-1.4-3.92-3.144 0-2.041 2.1-3.359 5.343-3.359 4.31 0 6.646 1.537 7.327 4.818zm6.25 16.028h4.726V18.801h-4.726zm-.641-30.672c0 4.006 6.008 4.006 6.008.056 0-4.006-6.008-4.006-6.008-.056m48.764 6.284c-7.3 0-12.4 5.118-12.4 12.447 0 7.529 4.964 12.589 12.351 12.589a10.661 10.661 0 0 0 8.459-4.225l.194 3.587v.011h4.174V18.788h-4.273l-.039 3.717a10.878 10.878 0 0 0-8.468-4.348m6.392 6.671a8.341 8.341 0 0 1 2.21 6.148 8.131 8.131 0 0 1-8.459 8.134c-4.811 0-8.172-3.439-8.172-8.362a7.952 7.952 0 0 1 8.125-8.316 8.507 8.507 0 0 1 6.3 2.4" data-name="Path 15"/>
</svg>
